<svg width="10" height="10" viewBox="0 0 10 10" fill="none" xmlns="http://www.w3.org/2000/svg">
<path d="M5.49106 5.00002L9.34275 1.14832C9.47835 1.01271 9.47835 0.792853 9.34275 0.657263C9.20714 0.521673 8.98728 0.521655 8.85169 0.657263L4.99998 4.50896L1.1483 0.657263C1.01269 0.521655 0.79283 0.521655 0.65724 0.657263C0.52165 0.792871 0.521632 1.01273 0.65724 1.14832L4.50892 5L0.65724 8.8517C0.521632 8.98731 0.521632 9.20717 0.65724 9.34276C0.725035 9.41056 0.813907 9.44445 0.902778 9.44445C0.99165 9.44445 1.0805 9.41056 1.14832 9.34276L4.99998 5.49108L8.85167 9.34276C8.91946 9.41056 9.00834 9.44445 9.09721 9.44445C9.18608 9.44445 9.27493 9.41056 9.34275 9.34276C9.47835 9.20716 9.47835 8.98729 9.34275 8.8517L5.49106 5.00002Z" fill="#787878"/>
</svg>
