<svg width="24" height="12" viewBox="0 0 24 12" fill="none" xmlns="http://www.w3.org/2000/svg">
<path fill-rule="evenodd" clip-rule="evenodd" d="M12.7383 0.03125H17.9219H19.2168C19.291 0.03125 19.3184 0.0976562 19.3496 0.164062L19.8691 1.24414C19.9004 1.31055 19.8086 1.37695 19.7363 1.37695H10.9238C10.3477 1.37891 11.332 0.03125 12.7383 0.03125ZM4.6543 8.96484V9.69531H5.38477C5.29688 9.33789 5.01368 9.05273 4.6543 8.96484ZM5.38477 10.1738H4.6543V10.9043C5.01368 10.8164 5.29688 10.5332 5.38477 10.1738ZM4.17774 10.9043V10.1738H3.44727C3.53516 10.5332 3.81837 10.8164 4.17774 10.9043ZM3.44532 9.69727H4.17579V8.9668C3.81837 9.05469 3.53516 9.33789 3.44532 9.69727ZM17.5879 8.96484V9.69531H18.3184C18.2305 9.33789 17.9473 9.05273 17.5879 8.96484ZM18.3184 10.1738H17.5879V10.9043C17.9473 10.8164 18.2305 10.5332 18.3184 10.1738ZM17.1113 10.9043V10.1738H16.3809C16.4668 10.5332 16.75 10.8164 17.1113 10.9043ZM16.3789 9.69727H17.1094V8.9668C16.75 9.05469 16.4668 9.33789 16.3789 9.69727ZM17.5117 2.52539H18.1992C19.1914 2.57031 19.5996 2.53516 19.9941 2.83594C20.4824 3.20898 20.6738 4.85742 20.877 5.61914C20.8906 5.66992 20.832 5.7168 20.7793 5.7168H17.75C17.6973 5.7168 17.6582 5.67383 17.6524 5.61914L17.4141 2.62109C17.4102 2.57031 17.459 2.52539 17.5117 2.52539ZM12.9082 2.54297H10.6621C9.63673 2.54297 7.94923 4.22852 7.50782 5.5918C7.48634 5.6582 7.56446 5.71875 7.63477 5.71875H12.5527C12.6231 5.71875 12.6699 5.66211 12.6797 5.5918L13.0371 2.66992C13.043 2.59961 12.9766 2.54297 12.9082 2.54297ZM13.8809 2.53125H16.6289C16.6816 2.53125 16.7227 2.57617 16.7266 2.62891L16.9356 5.62109C16.9395 5.67383 16.8906 5.71875 16.8379 5.71875H13.5234C13.4707 5.71875 13.4199 5.67383 13.4258 5.62109L13.7832 2.62891C13.7891 2.57422 13.8262 2.53125 13.8809 2.53125ZM4.41602 7.9043C5.53712 7.9043 6.44727 8.81445 6.44727 9.93555C6.44727 11.0566 5.53712 11.9668 4.41602 11.9668C3.29493 11.9668 2.38477 11.0566 2.38477 9.93555C2.38477 8.81445 3.29493 7.9043 4.41602 7.9043ZM0.353523 7.99609C0.457039 7.94922 0.57032 7.92773 0.693367 7.92969C0.687508 7.28906 0.730477 6.73047 0.878914 6.33398C0.933602 6.10547 1.03321 5.93945 1.16602 5.81836C1.58399 5.44531 5.31641 5.11719 6.10352 5.01562C7.07032 4.07031 8.14649 3.20508 9.29298 2.38672C9.61134 2.11719 10.0664 1.98438 10.6406 1.9707L19.7051 1.96289C20.3906 1.95898 20.918 2.25195 21.2539 2.91016L22.0098 5.08789L22.1816 5.04102V4.19336C22.1504 3.91016 22.2617 3.76953 22.4785 3.73437H23.4941C23.7734 3.74609 23.9707 3.88672 24.002 4.29102V7.30273C24.0039 7.61328 23.8906 7.81641 23.6035 7.85938H22.6602C22.5664 7.88086 22.5957 7.95312 22.5879 8.05273V9.08008C22.5195 9.83789 22.3125 10.4238 21.7051 10.5H19.8672C19.9063 9.60938 19.7383 8.88086 19.3301 8.33594C17.8477 6.35547 14.6309 7.53516 14.8477 10.5059H6.94923C7.01563 9.55664 6.83595 8.83594 6.44337 8.31836C4.96485 6.36719 1.5254 7.41992 1.93165 10.5664H0.710945C-0.0253828 10.5664 -0.265617 8.27148 0.353523 7.99609ZM17.3496 7.9043C18.4707 7.9043 19.3809 8.81445 19.3809 9.93555C19.3809 11.0566 18.4707 11.9668 17.3496 11.9668C16.2285 11.9668 15.3184 11.0566 15.3184 9.93555C15.3184 8.81445 16.2266 7.9043 17.3496 7.9043Z" fill="#5B9DB4"/>
</svg>
