<svg width="13" height="12" viewBox="0 0 13 12" fill="none" xmlns="http://www.w3.org/2000/svg">
<path d="M11.6895 1.71735C11.3741 1.4133 11.0003 1.17277 10.5894 1.00952C10.1785 0.846258 9.73853 0.763475 9.29473 0.765898C8.85093 0.768322 8.41197 0.855905 8.00296 1.02364C7.59395 1.19138 7.2229 1.43597 6.91105 1.74344C6.60332 1.42733 6.23389 1.17421 5.8244 0.998924C5.41491 0.823639 4.9736 0.729715 4.52634 0.722659C4.07909 0.715602 3.63489 0.795555 3.21978 0.957831C2.80467 1.12011 2.427 1.36144 2.10893 1.66768C1.79085 1.97392 1.53876 2.33891 1.36743 2.74125C1.1961 3.14359 1.10898 3.57519 1.11119 4.01074C1.11339 4.44629 1.20486 4.87703 1.38025 5.27771C1.55564 5.67839 1.8114 6.04094 2.13256 6.34412L6.62696 10.7178C6.6641 10.7544 6.70834 10.7834 6.75711 10.8033C6.80587 10.8231 6.8582 10.8333 6.91105 10.8333C6.9639 10.8333 7.01622 10.8231 7.06499 10.8033C7.11375 10.7834 7.15799 10.7544 7.19513 10.7178L11.6895 6.34412C12.3155 5.72846 12.6667 4.8971 12.6667 4.03074C12.6667 3.16437 12.3155 2.33301 11.6895 1.71735ZM11.1214 5.79611L6.91105 9.88793L3.01161 6.091L2.70073 5.79611C2.22334 5.32824 1.9554 4.69549 1.9554 4.03596C1.9554 3.37642 2.22334 2.74367 2.70073 2.2758C3.8719 1.15368 5.61123 1.38332 6.62964 2.58112C6.70853 2.6488 6.8087 2.68837 6.91372 2.69333C7.01894 2.68704 7.11895 2.64661 7.19781 2.57851C9.59107 -0.179813 13.5495 3.12391 11.1214 5.79611Z" fill="#47B0D5" stroke="#47B0D5" stroke-width="0.433333"/>
</svg>
