<svg width="24" height="24" viewBox="0 0 24 24" fill="none" xmlns="http://www.w3.org/2000/svg">
<path d="M19.1585 17.9158L16.3072 15.0651C17.1714 13.9342 17.6453 12.5624 17.6455 11.1148C17.6455 9.37033 16.9659 7.73016 15.7319 6.49666C14.4982 5.26315 12.8579 4.58374 11.1128 4.58374C9.36802 4.58374 7.72751 5.26315 6.49375 6.49666C3.94681 9.04328 3.94681 13.1867 6.49375 15.7329C7.72751 16.9666 9.36802 17.646 11.1128 17.646C12.5607 17.6459 13.9328 17.172 15.064 16.3081L17.9153 19.1587C18.0868 19.3304 18.3119 19.4163 18.5369 19.4163C18.7618 19.4163 18.987 19.3304 19.1585 19.1587C19.5019 18.8156 19.5019 18.2589 19.1585 17.9158ZM7.73696 14.49C5.87558 12.629 5.87579 9.6008 7.73696 7.7396C8.63867 6.8383 9.83766 6.34172 11.1128 6.34172C12.3883 6.34172 13.587 6.8383 14.4887 7.7396C15.3904 8.64113 15.8871 9.83987 15.8871 11.1148C15.8871 12.3899 15.3904 13.5884 14.4887 14.49C13.587 15.3915 12.3883 15.8881 11.1128 15.8881C9.83766 15.8881 8.63867 15.3915 7.73696 14.49Z" fill="#B2B2B2"/>
</svg>
