<svg width="24" height="24" viewBox="0 0 24 24" fill="none" xmlns="http://www.w3.org/2000/svg">
<path d="M19.1585 17.9158L16.3072 15.0651C17.1714 13.9341 17.6453 12.5623 17.6455 11.1148C17.6455 9.37031 16.9659 7.73015 15.7319 6.49664C14.4982 5.26314 12.8579 4.58372 11.1128 4.58372C9.36802 4.58372 7.72751 5.26314 6.49375 6.49664C3.94681 9.04327 3.94681 13.1867 6.49375 15.7329C7.72751 16.9666 9.36802 17.646 11.1128 17.646C12.5607 17.6458 13.9328 17.172 15.064 16.3081L17.9153 19.1587C18.0868 19.3304 18.3119 19.4162 18.5369 19.4162C18.7618 19.4162 18.987 19.3304 19.1585 19.1587C19.5019 18.8156 19.5019 18.2589 19.1585 17.9158ZM7.73696 14.49C5.87558 12.629 5.87579 9.60079 7.73696 7.73959C8.63867 6.83828 9.83766 6.3417 11.1128 6.3417C12.3883 6.3417 13.587 6.83828 14.4887 7.73959C15.3904 8.64111 15.8871 9.83985 15.8871 11.1148C15.8871 12.3899 15.3904 13.5884 14.4887 14.49C13.587 15.3915 12.3883 15.8881 11.1128 15.8881C9.83766 15.8881 8.63867 15.3915 7.73696 14.49Z" fill="#33ADD6"/>
</svg>
