<svg width="24" height="24" viewBox="0 0 24 24" fill="none" xmlns="http://www.w3.org/2000/svg">
<path fill-rule="evenodd" clip-rule="evenodd" d="M0 13.1074C0.0566406 12.7891 0.216797 12.5938 0.53125 12.582C0.503906 12.25 0.566406 11.9707 0.710938 11.7402C0.779297 11.6328 0.865234 11.5371 0.970703 11.4531C1.33594 11.1563 1.75 11.125 2.20117 11.043C2.63867 10.9629 3.07617 10.8965 3.51172 10.8457C4.03906 10.7832 4.56836 10.7422 5.09766 10.7266C5.3418 10.7188 5.2832 10.7324 5.47852 10.584C6.42969 9.84961 7.46484 9.24609 8.54883 8.72461C8.92578 8.5332 9.41016 8.44141 9.97852 8.42578C11.1152 8.42578 15.625 8.42578 16.7617 8.42578C17.5137 8.42969 18.1543 8.60156 18.6914 8.92578L20.7578 10.5156C21.4473 10.5605 22.1348 10.6055 22.8242 10.6523C23.2461 10.6406 23.5684 10.7852 23.6914 11.2422V12.6387C24.2754 12.7891 23.8945 14.1348 23.6328 14.4297C23.4023 14.6895 23.1914 14.6602 22.8828 14.6602H21.041C21.3945 11.998 18.6816 11.4297 17.5645 12.8789C17.1953 13.3574 17.1387 14.0098 17.293 14.7773H5.55664C5.98438 12.8047 4.71094 12.002 3.53906 12.1172C2.03125 12.2656 1.63477 13.4746 1.89453 14.8008H0.587891C0.216797 14.8164 0.0429688 14.5195 0 14.0176V13.1074ZM3.91406 13.3613V13.9004H4.45312C4.38867 13.6367 4.17969 13.4277 3.91406 13.3613ZM4.45312 14.252H3.91406V14.791C4.17969 14.7266 4.38867 14.5176 4.45312 14.252ZM3.74023 14.8125H3.73633H3.73828H3.74023ZM3.5625 14.791V14.252H3.02344C3.08789 14.5176 3.29688 14.7266 3.5625 14.791ZM3.02344 13.9004H3.5625V13.3613C3.29688 13.4277 3.08789 13.6348 3.02344 13.9004ZM19.2969 13.3613V13.9004H19.8359C19.7715 13.6367 19.5625 13.4277 19.2969 13.3613ZM19.8574 14.0742V14.0781V14.0762V14.0742ZM19.8379 14.252H19.2969V14.791C19.5625 14.7266 19.7715 14.5176 19.8379 14.252ZM19.125 14.8125H19.1211H19.123H19.125ZM18.9473 14.791V14.252H18.4082C18.4727 14.5176 18.6816 14.7266 18.9473 14.791ZM18.4062 13.9004H18.9453V13.3613C18.6816 13.4277 18.4727 13.6348 18.4062 13.9004ZM6.45898 10.5156V11.1602H10.3828L10.6875 8.91797H9.79297C9.08008 9.00195 8.96484 9.02539 8.31836 9.36914C7.78516 9.65234 7.29883 9.96289 6.78125 10.3008C6.67383 10.3711 6.56445 10.4434 6.45898 10.5156ZM15.1445 8.89258L14.8066 11.1621H17.0586L17.5215 10.6602L17.7734 10.3867C17.75 9.06055 17.5918 8.91211 16.416 8.90625L15.1445 8.89258ZM11.3438 8.89258L11.0059 11.1621H14.0078L14.3047 8.91016L11.3438 8.89258ZM3.73828 12.5801C4.56445 12.5801 5.23633 13.25 5.23633 14.0781C5.23633 14.9043 4.56641 15.5762 3.73828 15.5762C2.91211 15.5762 2.24023 14.9063 2.24023 14.0781C2.24023 13.25 2.91016 12.5801 3.73828 12.5801ZM19.1211 12.5801C19.9473 12.5801 20.6191 13.25 20.6191 14.0781C20.6191 14.9043 19.9492 15.5762 19.1211 15.5762C18.2949 15.5762 17.623 14.9063 17.623 14.0781C17.625 13.25 18.2949 12.5801 19.1211 12.5801Z" fill="#5B9DB4"/>
</svg>
